<svg width="22" height="23" viewBox="0 0 22 23" fill="none" xmlns="http://www.w3.org/2000/svg">
<path d="M14.013 5.93143L6.10917 13.744C5.68845 14.1598 5.4368 14.7168 5.40284 15.3074L5.39804 15.391C5.32958 16.5815 6.18239 17.6269 7.36242 17.799V17.799C8.07645 17.9031 8.79795 17.6661 9.31115 17.1588L18.7577 7.82137C19.426 7.16082 19.802 6.26027 19.802 5.32064V5.32064C19.802 4.34289 19.3949 3.4093 18.6785 2.74399L18.3914 2.47747C17.3906 1.54817 16.0085 1.14846 14.6662 1.40015V1.40015C13.8212 1.55857 13.043 1.96617 12.4316 2.5705L2.98148 11.9116C1.72906 13.1496 1.10724 14.8897 1.29147 16.641L1.3036 16.7563C1.41173 17.7842 1.81248 18.7595 2.45829 19.5664V19.5664C2.67073 19.8318 2.91094 20.0794 3.16941 20.3002V20.3002C4.18694 21.1698 5.49411 21.6591 6.8326 21.6601L6.95085 21.6602C8.5173 21.6613 10.0209 21.0443 11.135 19.9431L21 10.192" stroke="#F49613" stroke-width="2" stroke-linecap="round"/>
</svg>
