<svg width="22" height="28" viewBox="0 0 22 28" fill="none" xmlns="http://www.w3.org/2000/svg">
<path d="M11.2299 14.9237C13.2691 14.9237 14.9222 13.2706 14.9222 11.2314C14.9222 9.19216 13.2691 7.53906 11.2299 7.53906C9.1907 7.53906 7.5376 9.19216 7.5376 11.2314C7.5376 13.2706 9.1907 14.9237 11.2299 14.9237Z" stroke="#F49613" stroke-width="2.11765" stroke-linecap="round" stroke-linejoin="round"/>
<path d="M20.4615 11.2308C20.4615 19.5385 11.2308 26 11.2308 26C11.2308 26 2 19.5385 2 11.2308C2 8.78262 2.97252 6.43473 4.70363 4.70363C6.43474 2.97252 8.78262 2 11.2308 2C13.6789 2 16.0268 2.97252 17.7579 4.70363C19.489 6.43473 20.4615 8.78262 20.4615 11.2308Z" stroke="#F49613" stroke-width="2.11765" stroke-linecap="round" stroke-linejoin="round"/>
</svg>
