<svg width="308" height="392" viewBox="0 0 308 392" fill="none" xmlns="http://www.w3.org/2000/svg">
<path fill-rule="evenodd" clip-rule="evenodd" d="M116.184 270.582C150.543 196.348 223.203 143.654 307.065 148.317C307.065 148.317 292.139 146.85 290.834 146.758C167.008 137.966 89.6895 167.533 11.3809 262.049C60.5813 253.655 67.4856 254.349 116.184 270.582Z" fill="#1F3B43"/>
<path fill-rule="evenodd" clip-rule="evenodd" d="M67.2718 243.813L78.4113 243.921L96.985 222.734L88.4705 221.012L67.2718 243.813Z" fill="#FEFEFE"/>
<path fill-rule="evenodd" clip-rule="evenodd" d="M103.486 208.537L110.706 210.439L132.383 191.016L125.879 189.777L103.486 208.537Z" fill="#FEFEFE"/>
<path fill-rule="evenodd" clip-rule="evenodd" d="M140.22 181.41L147.765 182.553L172.394 168.268L168.554 166.699L140.22 181.41Z" fill="#FEFEFE"/>
<path fill-rule="evenodd" clip-rule="evenodd" d="M203.126 238.573L226.919 238.14L188.526 39.0381L186.147 48.338L203.126 238.573Z" fill="#1F3B43"/>
<path fill-rule="evenodd" clip-rule="evenodd" d="M202.256 0L128.247 169.346L150.429 159.65L202.256 0Z" fill="#1F3B43"/>
<path d="M30.5438 345.033L17.4788 325.967L30.0127 307.855H20.3466L8.98072 324.001V307.855H0.483307V345.033H8.98072V327.825L20.8776 345.033H30.5438ZM48.2835 345.777C58.9587 345.777 67.6157 337.385 67.6157 326.445C67.6157 315.503 58.9587 307.112 48.2835 307.112C37.6083 307.112 28.9506 315.503 28.9506 326.445C28.9506 337.385 37.6083 345.777 48.2835 345.777ZM48.2835 337.491C42.2288 337.491 37.4487 333.083 37.4487 326.445C37.4487 319.805 42.2288 315.397 48.2835 315.397C54.3382 315.397 59.1183 319.805 59.1183 326.445C59.1183 333.083 54.3382 337.491 48.2835 337.491ZM109.574 307.855H101.076L90.9845 324.373L80.8933 307.855H72.3958V345.033H80.8933V323.417L90.5064 339.191H91.4626L101.076 323.417V345.033H109.574V307.855ZM144.096 307.855H115.947V345.033H124.444V316.034H135.598V345.033H144.096V307.855ZM174.103 345.033H183.398L170.757 307.855H159.923L147.282 345.033H156.577L158.435 339.191H172.245L174.103 345.033ZM160.985 331.224L165.34 317.575L169.695 331.224H160.985ZM206.767 307.855V322.089H195.082V307.855H186.585V345.033H195.082V330.269H206.767V345.033H215.265V307.855H206.767ZM242.351 345.033H250.85V307.855H244.476L230.136 328.038V307.855H221.639V345.033H228.012L242.351 324.851V345.033ZM284.045 307.855H269.173C262.109 307.855 256.426 313.538 256.426 320.602C256.426 325.436 259.56 329.844 264.075 331.756L255.364 345.033H264.924L272.838 332.818H275.547V345.033H284.045V307.855ZM269.173 325.382C266.837 325.382 264.924 323.311 264.924 320.602C264.924 317.894 266.837 315.822 269.173 315.822H275.547V325.382H269.173Z" fill="#1F3B43"/>
<path d="M14.0793 293.639V281.39H3.55776V288.434C3.55776 291.104 3.04174 292.607 2.32365 293.639H0.731171V300.1H4.32032V297.094H12.1722V300.1H15.7621V293.639H14.0793ZM6.13778 293.639C6.69892 292.629 7.14756 291.059 7.14756 288.479V284.755H10.4902V293.639H6.13778ZM24.9377 297.408C29.447 297.408 33.1042 293.864 33.1042 289.242C33.1042 284.62 29.447 281.075 24.9377 281.075C20.4283 281.075 16.7712 284.62 16.7712 289.242C16.7712 293.864 20.4283 297.408 24.9377 297.408ZM24.9377 293.909C22.3799 293.909 20.361 292.046 20.361 289.242C20.361 286.437 22.3799 284.575 24.9377 284.575C27.4955 284.575 29.5144 286.437 29.5144 289.242C29.5144 292.046 27.4955 293.909 24.9377 293.909ZM41.0686 281.39H35.1231V297.094H38.7129V292.159H41.0686C44.1646 292.159 46.5648 289.758 46.5648 286.774C46.5648 283.79 44.1646 281.39 41.0686 281.39ZM41.0686 288.793H38.7129V284.755H41.0686C42.168 284.755 42.9757 285.63 42.9757 286.774C42.9757 287.918 42.168 288.793 41.0686 288.793ZM55.7404 297.408C60.2498 297.408 63.9069 293.864 63.9069 289.242C63.9069 284.62 60.2498 281.075 55.7404 281.075C51.2311 281.075 47.5739 284.62 47.5739 289.242C47.5739 293.864 51.2311 297.408 55.7404 297.408ZM55.7404 293.909C53.1826 293.909 51.1637 292.046 51.1637 289.242C51.1637 286.437 53.1826 284.575 55.7404 284.575C58.2982 284.575 60.3171 286.437 60.3171 289.242C60.3171 292.046 58.2982 293.909 55.7404 293.909ZM83.6944 297.094L78.6245 289.107L83.47 281.39H79.4996L75.3716 288.299V281.39H71.7817V288.299L67.6537 281.39H63.6826L68.5287 289.107L63.4583 297.094H67.4294L71.7817 290.139V297.094H75.3716V290.139L79.7239 297.094H83.6944ZM93.7902 281.39V287.402H88.8544V281.39H85.2646V297.094H88.8544V290.857H93.7902V297.094H97.38V281.39H93.7902ZM107.565 297.408C112.075 297.408 115.732 293.864 115.732 289.242C115.732 284.62 112.075 281.075 107.565 281.075C103.056 281.075 99.3989 284.62 99.3989 289.242C99.3989 293.864 103.056 297.408 107.565 297.408ZM107.565 293.909C105.008 293.909 102.989 292.046 102.989 289.242C102.989 286.437 105.008 284.575 107.565 284.575C110.123 284.575 112.142 286.437 112.142 289.242C112.142 292.046 110.123 293.909 107.565 293.909ZM117.75 292.002H126.276V288.771H117.75V292.002ZM134.913 281.39H128.968V297.094H132.557V292.159H134.913C138.009 292.159 140.41 289.758 140.41 286.774C140.41 283.79 138.009 281.39 134.913 281.39ZM134.913 288.793H132.557V284.755H134.913C136.012 284.755 136.82 285.63 136.82 286.774C136.82 287.918 136.012 288.793 134.913 288.793ZM150.618 297.094H154.543L149.205 281.39H144.628L139.288 297.094H143.214L144 294.626H149.833L150.618 297.094ZM145.077 291.261L146.917 285.495L148.756 291.261H145.077ZM164.527 288.973C165.514 288.21 166.098 287.133 166.098 285.719C166.098 282.848 163.809 281.075 160.691 281.075C157.774 281.075 156.092 282.534 155.127 284.463L158.201 286.235C158.604 285.271 159.3 284.441 160.691 284.441C161.97 284.441 162.508 285.024 162.508 285.989C162.508 286.953 161.79 287.537 160.377 287.537H158.828V290.722H160.825C162.329 290.722 163.069 291.351 163.069 292.383C163.069 293.415 162.351 294.043 160.848 294.043C159.165 294.043 158.38 293.123 157.976 291.912L154.88 293.684C155.8 295.905 157.617 297.408 160.848 297.408C164.146 297.408 166.659 295.591 166.659 292.652C166.659 290.97 165.851 289.713 164.527 288.973ZM184.159 281.39H180.569L176.306 288.367L172.043 281.39H168.453V297.094H172.043V287.963L176.104 294.626H176.508L180.569 287.963V297.094H184.159V281.39ZM190.44 293.639V290.857H196.048V287.447H190.44V284.844H196.609V281.39H186.85V297.094H196.721V293.639H190.44ZM209.286 281.39H197.619V284.844H201.658V297.094H205.247V284.844H209.286V281.39ZM217.452 297.408C221.961 297.408 225.618 293.864 225.618 289.242C225.618 284.62 221.961 281.075 217.452 281.075C212.942 281.075 209.285 284.62 209.285 289.242C209.285 293.864 212.942 297.408 217.452 297.408ZM217.452 293.909C214.894 293.909 212.875 292.046 212.875 289.242C212.875 286.437 214.894 284.575 217.452 284.575C220.01 284.575 222.028 286.437 222.028 289.242C222.028 292.046 220.01 293.909 217.452 293.909ZM235.377 281.39V288.142C234.57 288.501 233.762 288.658 232.797 288.658C231.563 288.658 230.666 287.918 230.666 286.46V281.39H227.076V286.998C227.076 290.297 229.589 292.113 232.707 292.113C233.649 292.113 234.502 291.956 235.377 291.62V297.094H238.966V281.39H235.377ZM250.184 281.39V287.402H245.249V281.39H241.659V297.094H245.249V290.857H250.184V297.094H253.774V281.39H250.184ZM266.449 297.094H270.375L265.036 281.39H260.459L255.12 297.094H259.046L259.831 294.626H265.664L266.449 297.094ZM260.908 291.261L262.748 285.495L264.588 291.261H260.908ZM283.276 281.39H276.994C274.01 281.39 271.61 283.79 271.61 286.774C271.61 288.815 272.933 290.678 274.84 291.486L271.161 297.094H275.199L278.542 291.934H279.686V297.094H283.276V281.39ZM276.994 288.793C276.007 288.793 275.199 287.918 275.199 286.774C275.199 285.63 276.007 284.755 276.994 284.755H279.686V288.793H276.994Z" fill="#1F3B43"/>
<path d="M22.3066 354.7L15.7745 370.952L8.49807 354.7H0L11.8969 380.247C10.4633 382.849 8.3385 384.283 4.46159 383.912V391.878C11.4188 392.25 16.7836 388.957 20.0765 380.937L30.8047 354.7H22.3066ZM48.5968 354.7H34.5227V391.878H43.0201V380.194H48.5968C55.9262 380.194 61.6094 374.511 61.6094 367.447C61.6094 360.383 55.9262 354.7 48.5968 354.7ZM48.5968 372.227H43.0201V362.667H48.5968C51.1997 362.667 53.1113 364.738 53.1113 367.447C53.1113 370.156 51.1997 372.227 48.5968 372.227ZM85.7747 391.878H95.0694L82.4289 354.7H71.594L58.9535 391.878H68.2482L70.1068 386.036H83.9161L85.7747 391.878ZM72.6561 378.069L77.0111 364.419L81.3668 378.069H72.6561ZM96.1315 391.878C102.983 392.622 110.79 390.072 110.79 376.794V362.879H119.5V391.878H127.998V354.7H102.292V377.113C102.292 383.327 99.9554 384.496 96.1315 383.912V391.878Z" fill="#1F3B43"/>
</svg>
