<svg width="171" height="157" viewBox="0 0 171 157" fill="none" xmlns="http://www.w3.org/2000/svg">
<path fill-rule="evenodd" clip-rule="evenodd" d="M60.5669 156.372C80.4231 113.471 122.414 83.0187 170.879 85.7135C170.879 85.7135 162.253 84.8658 161.498 84.8125C89.9384 79.7316 45.2553 96.8189 0 151.44C28.4334 146.59 32.4234 146.991 60.5669 156.372Z" fill="#F49613"/>
<path fill-rule="evenodd" clip-rule="evenodd" d="M32.2998 140.902L38.7375 140.964L49.4714 128.72L44.5508 127.725L32.2998 140.902Z" fill="#FEFEFE"/>
<path fill-rule="evenodd" clip-rule="evenodd" d="M53.2286 120.516L57.4008 121.614L69.9281 110.39L66.1693 109.674L53.2286 120.516Z" fill="#FEFEFE"/>
<path fill-rule="evenodd" clip-rule="evenodd" d="M74.4571 104.839L78.8179 105.499L93.0508 97.2432L90.8319 96.3369L74.4571 104.839Z" fill="#FEFEFE"/>
<path fill-rule="evenodd" clip-rule="evenodd" d="M110.812 137.874L124.561 137.624L102.374 22.5605L100.999 27.935L110.812 137.874Z" fill="#F49613"/>
<path fill-rule="evenodd" clip-rule="evenodd" d="M110.309 0L67.5379 97.8667L80.3573 92.2632L110.309 0Z" fill="#F49613"/>
</svg>
