<svg width="295" height="270" viewBox="0 0 295 270" fill="none" xmlns="http://www.w3.org/2000/svg">
<path fill-rule="evenodd" clip-rule="evenodd" d="M104.561 269.955C138.84 195.893 211.332 143.321 295 147.973C295 147.973 280.108 146.509 278.806 146.417C155.267 137.646 78.1274 167.145 0 261.441C49.0865 253.067 55.9748 253.76 104.561 269.955Z" fill="#1F3B43"/>
<path fill-rule="evenodd" clip-rule="evenodd" d="M55.7614 243.248L66.8752 243.356L85.4058 222.218L76.9111 220.5L55.7614 243.248Z" fill="#FEFEFE"/>
<path fill-rule="evenodd" clip-rule="evenodd" d="M91.8922 208.055L99.095 209.952L120.722 190.574L114.233 189.338L91.8922 208.055Z" fill="#FEFEFE"/>
<path fill-rule="evenodd" clip-rule="evenodd" d="M128.54 180.99L136.069 182.13L160.64 167.878L156.809 166.313L128.54 180.99Z" fill="#FEFEFE"/>
<path fill-rule="evenodd" clip-rule="evenodd" d="M191.302 238.022L215.039 237.59L176.735 38.9482L174.361 48.2266L191.302 238.022Z" fill="#1F3B43"/>
<path fill-rule="evenodd" clip-rule="evenodd" d="M190.433 0L116.595 168.954L138.726 159.28L190.433 0Z" fill="#1F3B43"/>
</svg>
