<svg width="175" height="182" viewBox="0 0 175 182" fill="none" xmlns="http://www.w3.org/2000/svg">
<path fill-rule="evenodd" clip-rule="evenodd" d="M62.9604 157.227C82.8166 114.327 124.807 83.8743 173.272 86.5691C173.272 86.5691 164.646 85.7214 163.892 85.6681C92.3319 80.5872 47.6488 97.6745 2.39351 152.296C30.8269 147.445 34.8169 147.846 62.9604 157.227Z" fill="#F19413"/>
<path fill-rule="evenodd" clip-rule="evenodd" d="M34.6934 141.757L41.131 141.82L51.8649 129.576L46.9443 128.58L34.6934 141.757Z" fill="#FEFEFE"/>
<path fill-rule="evenodd" clip-rule="evenodd" d="M55.6221 121.371L59.7943 122.47L72.3216 111.245L68.5628 110.529L55.6221 121.371Z" fill="#FEFEFE"/>
<path fill-rule="evenodd" clip-rule="evenodd" d="M76.8506 105.694L81.2114 106.355L95.4443 98.0989L93.2254 97.1926L76.8506 105.694Z" fill="#FEFEFE"/>
<path fill-rule="evenodd" clip-rule="evenodd" d="M113.205 138.729L126.955 138.479L104.767 23.4158L103.392 28.7903L113.205 138.729Z" fill="#F29413"/>
<path fill-rule="evenodd" clip-rule="evenodd" d="M112.702 0.855469L69.9314 98.7222L82.7508 93.1186L112.702 0.855469Z" fill="#F29413"/>
<path d="M13.9048 177.356C12.4055 178.78 10.5811 179.492 8.43093 179.492C6.28113 179.492 4.45978 178.78 2.968 177.356C1.47546 175.932 0.729385 174.188 0.729385 172.122C0.729385 170.058 1.47546 168.313 2.968 166.889C4.45978 165.465 6.28113 164.754 8.43093 164.754C10.5811 164.754 12.4055 165.465 13.9048 166.889C15.4042 168.313 16.1536 170.058 16.1536 172.122C16.1536 174.188 15.4042 175.932 13.9048 177.356ZM5.01537 175.453C5.93455 176.323 7.07332 176.759 8.43093 176.759C9.78891 176.759 10.9277 176.323 11.8469 175.453C12.7664 174.582 13.2256 173.472 13.2256 172.122C13.2256 170.773 12.7664 169.659 11.8469 168.782C10.9277 167.905 9.78891 167.466 8.43093 167.466C7.07332 167.466 5.93455 167.905 5.01537 168.782C4.09581 169.659 3.63622 170.773 3.63622 172.122C3.63622 173.472 4.09581 174.582 5.01537 175.453ZM30.7082 177.356C29.2085 178.78 27.3841 179.492 25.2343 179.492C23.0842 179.492 21.2632 178.78 19.771 177.356C18.2785 175.932 17.5328 174.188 17.5328 172.122C17.5328 170.058 18.2785 168.313 19.771 166.889C21.2632 165.465 23.0842 164.754 25.2343 164.754C27.3841 164.754 29.2085 165.465 30.7082 166.889C32.2076 168.313 32.9567 170.058 32.9567 172.122C32.9567 174.188 32.2076 175.932 30.7082 177.356ZM21.8184 175.453C22.7376 176.323 23.8763 176.759 25.2343 176.759C26.5919 176.759 27.7307 176.323 28.6503 175.453C29.5694 174.582 30.029 173.472 30.029 172.122C30.029 170.773 29.5694 169.659 28.6503 168.782C27.7307 167.905 26.5919 167.466 25.2343 167.466C23.8763 167.466 22.7376 167.905 21.8184 168.782C20.8992 169.659 20.4392 170.773 20.4392 172.122C20.4392 173.472 20.8992 174.582 21.8184 175.453ZM47.5116 177.356C46.0119 178.78 44.1875 179.492 42.0373 179.492C39.8876 179.492 38.0662 178.78 36.5744 177.356C35.0819 175.932 34.3358 174.188 34.3358 172.122C34.3358 170.058 35.0819 168.313 36.5744 166.889C38.0662 165.465 39.8876 164.754 42.0373 164.754C44.1875 164.754 46.0119 165.465 47.5116 166.889C49.0106 168.313 49.7601 170.058 49.7601 172.122C49.7601 174.188 49.0106 175.932 47.5116 177.356ZM38.6218 175.453C39.541 176.323 40.6797 176.759 42.0373 176.759C43.3953 176.759 44.5341 176.323 45.4533 175.453C46.3728 174.582 46.8321 173.472 46.8321 172.122C46.8321 170.773 46.3728 169.659 45.4533 168.782C44.5341 167.905 43.3953 167.466 42.0373 167.466C40.6797 167.466 39.541 167.905 38.6218 168.782C37.7022 169.659 37.2426 170.773 37.2426 172.122C37.2426 173.472 37.7022 174.582 38.6218 175.453ZM61.9381 169.146L59.6042 172.952L61.9381 176.738H59.4134L57.0799 172.952L59.4134 169.146H61.9381ZM65.9689 169.146L63.6355 172.952L65.9689 176.738H63.4446L61.1107 172.952L63.4446 169.146H65.9689ZM79.2506 176.536H80.8418V181.921H77.9137V179.208H69.7031V181.921H66.7751V176.536H68.2181C69.0383 175.443 69.4488 173.843 69.4488 171.738V165.037H79.2506V176.536ZM71.3582 176.536H76.323V167.648H72.3767V171.779C72.3767 173.83 72.0374 175.416 71.3582 176.536ZM88.3309 165.037C89.7596 165.037 90.9618 165.496 91.9377 166.414C92.9139 167.331 93.4019 168.458 93.4019 169.794C93.4019 171.131 92.9139 172.257 91.9377 173.175C90.9618 174.093 89.7596 174.552 88.3309 174.552H85.7215V179.208H82.7939V165.037H88.3309ZM88.3309 171.94C88.9534 171.94 89.4697 171.735 89.8797 171.323C90.2902 170.911 90.4954 170.402 90.4954 169.794C90.4954 169.174 90.2902 168.661 89.8797 168.256C89.4697 167.851 88.9534 167.648 88.3309 167.648H85.7215V171.94H88.3309ZM106.917 179.208H103.543L98.2393 172.568V179.208H95.3113V165.037H98.2393V171.293L103.331 165.037H106.704L101.209 171.92L106.917 179.208ZM121.874 165.037H124.801L120.347 175.301C119.158 178.054 117.206 179.357 114.491 179.208V176.597C115.283 176.664 115.923 176.56 116.411 176.283C116.898 176.006 117.305 175.557 117.631 174.937L112.772 165.037H115.7L118.946 171.879L121.874 165.037ZM131.93 165.037C133.359 165.037 134.561 165.496 135.537 166.414C136.513 167.331 137.001 168.458 137.001 169.794C137.001 171.131 136.513 172.257 135.537 173.175C134.561 174.093 133.359 174.552 131.93 174.552H129.321V179.208H126.393V165.037H131.93ZM131.93 171.94C132.553 171.94 133.069 171.735 133.479 171.323C133.889 170.911 134.095 170.402 134.095 169.794C134.095 169.174 133.889 168.661 133.479 168.256C133.069 167.851 132.553 167.648 131.93 167.648H129.321V171.94H131.93ZM146.952 179.208L146.061 176.658H140.141L139.25 179.208H136.089L141.287 165.037H144.915L150.134 179.208H146.952ZM141.075 174.046H145.148L143.111 168.256L141.075 174.046ZM150.601 179.208V176.617C151.478 176.738 152.136 176.57 152.574 176.111C153.013 175.652 153.231 174.755 153.231 173.418V165.037H163.331V179.208H160.424V167.709H156.138V173.337C156.138 174.566 155.983 175.598 155.671 176.435C155.36 177.272 154.932 177.892 154.388 178.298C153.843 178.702 153.264 178.972 152.648 179.107C152.033 179.242 151.35 179.276 150.601 179.208ZM168.571 169.146L170.905 172.952L168.571 176.738H166.047L168.38 172.952L166.047 169.146H168.571ZM172.602 169.146L174.936 172.952L172.602 176.738H170.078L172.411 172.952L170.078 169.146H172.602Z" fill="#F29413"/>
</svg>
