<svg width="52" height="32" viewBox="0 0 52 32" fill="none" xmlns="http://www.w3.org/2000/svg">
<path d="M50.8077 2.11286C51.171 0.893901 50.8077 0 49.0898 0H43.399C41.951 0 41.2892 0.773317 40.9259 1.62265C40.9259 1.62265 38.0325 8.75027 33.9324 13.3718C32.6089 14.7166 32.0043 15.1413 31.2829 15.1413C30.9222 15.1413 30.398 14.7166 30.398 13.4976V2.11286C30.398 0.65011 29.9802 0 28.7735 0H19.8311C18.928 0 18.3831 0.676324 18.3831 1.32119C18.3831 2.7053 20.4331 3.02511 20.6433 6.92577V15.3877C20.6433 17.241 20.3138 17.5792 19.5872 17.5792C17.6591 17.5792 12.9673 10.4253 10.1828 2.23606C9.64047 0.644867 9.09292 0.00262247 7.63971 0.00262247H1.95145C0.324377 0.00262247 0 0.775938 0 1.62527C0 3.15094 1.92809 10.7006 8.98134 20.6855C13.6835 27.5038 20.3034 31.2 26.3342 31.2C29.949 31.2 30.3954 30.3795 30.3954 28.964V23.8103C30.3954 22.1693 30.7405 21.839 31.8849 21.839C32.7257 21.839 34.1737 22.2689 37.5498 25.5535C41.406 29.4489 42.0444 31.1974 44.2112 31.1974H49.8995C51.524 31.1974 52.3362 30.3769 51.8691 28.7569C51.3579 27.1447 49.5154 24.7985 47.0709 22.0225C45.7423 20.4391 43.7571 18.7352 43.1525 17.8833C42.3091 16.7849 42.553 16.2999 43.1525 15.3248C43.155 15.3274 50.0863 5.46564 50.8077 2.11286Z" fill="white"/>
</svg>
